# xmcd
#
# Track frame offsets:
#	150
#	10697
#	22714
#	35163
#	46381
#	62387
#	80191
#	97548
#	110796
#	122344
#	133640
#	144577
#	157915
#	171127
#	180841
#	195400
#	211278
#	222588
#	233097
#	247533
#
# Disc length: 3478 seconds
#
# Revision: 1
# Processed by: cddbd v1.4b41PL3 Copyright (c) Steve Scherf et al.
# Submitted via: audiograbber 1.80
#
DISCID=f60d9414
DTITLE=Crystal Gayle - Country Greatest
DYEAR=1900
DGENRE=
TTITLE0=Wrong Road Again
TTITLE1=Beyond You
TTITLE2=This Is My Year For Mexico
TTITLE3=Somebody Loves You
TTITLE4=I´ll Get You Over
TTITLE5=One More Time (Karneval)
TTITLE6=You Never Miss A Real Good Thing (Till He Says Goodbye)
TTITLE7=I´ll Do It All Over Again
TTITLE8=Don´t It Make My Brown Eyes Blue
TTITLE9=It´s All Right With Me
TTITLE10=Ready For The Times To Get Better
TTITLE11=Talkin´ In Your Sleep
TTITLE12=Why Have You Left The One You Left For Me
TTITLE13=Paintin´ This Old Town Blue
TTITLE14=Cry Me A River
TTITLE15=When I Dream
TTITLE16=Hello I Love You
TTITLE17=Your Old Cold Shoulder
TTITLE18=River Road
TTITLE19=Heart Mender
EXTD=
EXTT0=
EXTT1=
EXTT2=
EXTT3=
EXTT4=
EXTT5=
EXTT6=
EXTT7=
EXTT8=
EXTT9=
EXTT10=
EXTT11=
EXTT12=
EXTT13=
EXTT14=
EXTT15=
EXTT16=
EXTT17=
EXTT18=
EXTT19=
PLAYORDER=
